<svg xmlns="http://www.w3.org/2000/svg" viewBox="0 0 1371 910"><defs><style>.cls-1{fill:none;}.cls-2{fill:#fff;}</style></defs><g id="Espace_respiration" data-name="Espace respiration"><rect class="cls-1" width="1371" height="910"/></g><g id="Proposition"><path class="cls-2" d="M303.8,247.8l60.6-14.1c1.8,17.7,8.1,26.4,22.2,26.4s20.1-11.7,20.1-23.7V105H467l-.29,134.4c0,33.6-10.5,79.2-80.11,79.2C316.1,318.6,306.5,273.9,303.8,247.8Z"/><path class="cls-2" d="M489.2,240.6V105h60.3V231.6c0,17.7,10.5,30,28.5,30,17.7,0,28.2-12.3,28.2-30V105h60.3V240.6c0,45.6-21.9,78.6-88.5,78.6S489.2,286.2,489.2,240.6Z"/><path class="cls-2" d="M682.1,255.9l60-13.2c1.5,10.5,6.3,24.9,36.3,24.9,17.1,0,28.8-6.3,28.8-15.9,0-28.8-120,3.3-118.8-89.1.3-39,35.1-61.2,85.2-61.2,54.6,0,85.5,28.2,88.5,54.9l-58.2,14.4c-3.6-13.2-15-18.3-30.3-18.3-13.2,0-24.6,3.6-24.6,11.7,0,29.1,118.5-.9,118.5,83.4,0,49.5-33.9,71.1-95.1,71.1C714.2,318.6,685.1,284.4,682.1,255.9Z"/><path class="cls-2" d="M932,163.5H874.4V105h175.8v58.5H992.3V315H932Z"/><path class="cls-2" d="M410.4,350H565.5v58.5H470.7v21.6h88.5v49.5H470.7V560H410.4Z"/><path class="cls-2" d="M578.7,441.5c15.9-57.9,67.5-95.7,126-95.7,62.1,0,92.7,48.6,72.9,122.7-15.6,57.9-58.2,95.7-125.7,95.7C589.5,564.2,558.6,515.6,578.7,441.5Zm139.2,14.1c10.2-33.6,1.8-53.7-23.4-54-25.2-.6-45.9,18.9-56.1,52.8-10.2,33.6-1.5,53.7,23.7,54C687,509,707.7,489.5,717.9,455.6Z"/><path class="cls-2" d="M916.8,560l-33.9-71.4H859.2V560H798.9V350h90.6c35.1,0,81.6,8.4,81.6,68.7,0,31.5-12.3,48.9-28.8,58.5L981,560ZM859.2,433.1h24c18.3,0,30.6,0,30.6-14.4,0-14.1-15.9-13.2-30.6-13.2h-24Z"/><path class="cls-2" d="M104.86,595h60.3V746.5H257V805H104.86Z"/><path class="cls-2" d="M410.25,773.5h-75.9L323.55,805h-61.2l74.7-210h70.5l74.7,210h-61.2ZM392,721l-19.5-57-19.8,57Z"/><path class="cls-2" d="M478.35,730.6V595h60.3V721.6c0,17.7,10.5,30,28.5,30,17.7,0,28.2-12.3,28.2-30V595h60.3V730.6c0,45.6-21.9,78.6-88.5,78.6S478.35,776.2,478.35,730.6Z"/><path class="cls-2" d="M674,699.4c0-70.5,39.9-108,102.9-108,49.2,0,85.8,23.1,94.2,66.3l-57.3,10.5c-5.7-12.6-17.4-21.3-36.9-21.3-36.9,0-42.6,29.4-42.6,52.5s6,53.7,42.6,53.7c19.5,0,36.3-12.3,36.3-26.4h-50.7V683.2H872V805h-45.3V774.7c-10.2,18.9-26.4,33.9-61.8,33.9C712.35,808.6,674,769.9,674,699.4Z"/><path class="cls-2" d="M896.85,595h60.3v74.1h58.5V595H1076V805h-60.3V727.6h-58.5V805h-60.3Z"/><path class="cls-2" d="M1093.35,745.9l60-13.2c1.5,10.5,6.3,24.9,36.3,24.9,17.1,0,28.8-6.3,28.8-15.9,0-28.8-120,3.3-118.8-89.1.3-39,35.1-61.2,85.2-61.2,54.6,0,85.5,28.2,88.5,54.9l-58.2,14.4c-3.6-13.2-15-18.3-30.3-18.3-13.2,0-24.6,3.6-24.6,11.7,0,29.1,118.5-.9,118.5,83.4,0,49.5-33.9,71.1-95.1,71.1C1125.45,808.6,1096.35,774.4,1093.35,745.9Z"/></g></svg>